<svg width="100" height="100" viewBox="0 0 100 100" fill="none" xmlns="http://www.w3.org/2000/svg">
    <style>
        path {
            fill: #6116DC;
        }
        @media (prefers-color-scheme: dark) {
            path {
                fill: white;
            }
        }
    </style>
<path d="M34.4149 88.0795H53.5198C60.268 88.0795 65.6308 85.9823 69.6082 81.7881C72.5131 78.7417 73.9655 74.7241 73.9655 69.7351C73.9655 64.5695 72.4237 60.2207 69.3401 56.6887C65.9883 52.6269 60.7149 50.596 53.5198 50.596H34.4149V88.0795ZM34.4149 38.6755H53.5198C57.9888 38.6755 61.5864 37.2406 64.3125 34.3709C66.7257 31.8102 67.9323 28.4768 67.9323 24.3709C67.9323 21.0155 66.4799 17.9912 63.5751 15.298C60.9831 13.0464 57.6313 11.9205 53.5198 11.9205H34.4149V38.6755ZM22.405 100C21.6334 100 21.0079 99.3782 21.0079 98.6111V4.19411C21.0079 3.65536 21.3213 3.16521 21.812 2.93653L27.8318 0.131318C28.0174 0.0448324 28.2198 0 28.4248 0H53.5198C61.0724 0 67.3514 2.03091 72.3566 6.09272C78.3004 10.8609 81.2723 16.9757 81.2723 24.4371C81.2723 32.0309 77.8759 38.3444 71.083 43.3775C73.2728 44.3046 75.4403 45.6954 77.5854 47.5497C84.1101 53.4216 87.3725 60.7064 87.3725 69.404C87.3725 78.1457 84.5123 85.3201 78.792 90.9271C72.6695 96.9757 64.2454 100 53.5198 100H22.405Z"/>
<path d="M12.625 4.16666C12.625 3.3996 13.2505 2.77778 14.0221 2.77778H16.1179C16.8895 2.77778 17.515 3.3996 17.515 4.16667V98.6111C17.515 99.3782 16.8895 100 16.1179 100H14.0221C13.2505 100 12.625 99.3782 12.625 98.6111V4.16666Z"/>
</svg>
