<svg width="112" height="111" viewBox="0 0 112 111" fill="none" xmlns="http://www.w3.org/2000/svg">
<g filter="url(#filter0_d_518_3314)">
<circle cx="56.5" cy="55.5" r="37.5" fill="#6116DC"/>
<path d="M49.697 75.8487H59.9526C63.5751 75.8487 66.4539 74.7281 68.589 72.4868C70.1484 70.8589 70.928 68.7119 70.928 66.0459C70.928 63.2856 70.1004 60.9617 68.4451 59.0743C66.6458 56.9038 63.815 55.8185 59.9526 55.8185H49.697V75.8487ZM49.697 49.4485H59.9526C62.3516 49.4485 64.2828 48.6817 65.7462 47.1482C67.0417 45.7798 67.6894 43.9986 67.6894 41.8044C67.6894 40.0114 66.9097 38.3953 65.3504 36.9561C63.959 35.7529 62.1597 35.1513 59.9526 35.1513H49.697V49.4485ZM43.25 82.2188C42.8358 82.2188 42.5 81.8865 42.5 81.4766V31.0225C42.5 30.7346 42.6682 30.4727 42.9317 30.3505L46.1631 28.8514C46.2627 28.8052 46.3714 28.7812 46.4815 28.7812H59.9526C64.0069 28.7812 67.3775 29.8665 70.0644 32.037C73.255 34.5851 74.8504 37.8527 74.8504 41.8398C74.8504 45.8978 73.0271 49.2715 69.3807 51.9611C70.5562 52.4565 71.7197 53.1997 72.8712 54.1906C76.3737 57.3284 78.125 61.2212 78.125 65.869C78.125 70.5404 76.5896 74.3742 73.5189 77.3705C70.2323 80.6027 65.7102 82.2188 59.9526 82.2188H43.25Z" fill="white"/>
<path d="M38 31.0078C38 30.5979 38.3358 30.2656 38.75 30.2656H39.875C40.2892 30.2656 40.625 30.5979 40.625 31.0078V81.4766C40.625 81.8865 40.2892 82.2188 39.875 82.2188H38.75C38.3358 82.2188 38 81.8865 38 81.4766V31.0078Z" fill="white"/>
</g>
<defs>
<filter id="filter0_d_518_3314" x="0" y="0" width="112" height="111" filterUnits="userSpaceOnUse" color-interpolation-filters="sRGB">
<feFlood flood-opacity="0" result="BackgroundImageFix"/>
<feColorMatrix in="SourceAlpha" type="matrix" values="0 0 0 0 0 0 0 0 0 0 0 0 0 0 0 0 0 0 127 0" result="hardAlpha"/>
<feOffset/>
<feGaussianBlur stdDeviation="4"/>
<feComposite in2="hardAlpha" operator="out"/>
<feColorMatrix type="matrix" values="0 0 0 0 0 0 0 0 0 0 0 0 0 0 0 0 0 0 0.15 0"/>
<feBlend mode="normal" in2="BackgroundImageFix" result="effect1_dropShadow_518_3314"/>
<feBlend mode="normal" in="SourceGraphic" in2="effect1_dropShadow_518_3314" result="shape"/>
</filter>
</defs>
</svg>
