<svg width="92" height="91" viewBox="0 0 92 91" fill="none" xmlns="http://www.w3.org/2000/svg">
<g filter="url(#filter0_d_516_3312)">
<rect width="75" height="75" transform="translate(9 8)" fill="#6116DC"/>
<path d="M41.0101 61.5648H49.1292C51.997 61.5648 54.276 60.68 55.9663 58.9106C57.2008 57.6254 57.818 55.9305 57.818 53.8257C57.818 51.6465 57.1628 49.8119 55.8523 48.3218C54.4279 46.6082 52.1869 45.7514 49.1292 45.7514H41.0101V61.5648ZM41.0101 40.7225H49.1292C51.0284 40.7225 52.5572 40.1171 53.7157 38.9065C54.7413 37.8262 55.2541 36.4199 55.2541 34.6877C55.2541 33.2721 54.6369 31.9963 53.4024 30.8601C52.3008 29.9102 50.8764 29.4352 49.1292 29.4352H41.0101V40.7225ZM35.9062 66.5938C35.5783 66.5938 35.3125 66.3314 35.3125 66.0078V26.1756C35.3125 25.9484 35.4457 25.7416 35.6542 25.6451L38.2125 24.4616C38.2913 24.4252 38.3774 24.4062 38.4645 24.4062H49.1292C52.3388 24.4062 55.0072 25.263 57.1343 26.9766C59.6602 28.9882 60.9232 31.5679 60.9232 34.7156C60.9232 37.9193 59.4798 40.5828 56.593 42.7061C57.5236 43.0973 58.4448 43.684 59.3564 44.4663C62.1292 46.9435 63.5156 50.0168 63.5156 53.6861C63.5156 57.374 62.3001 60.4007 59.8692 62.7661C57.2673 65.3179 53.6873 66.5938 49.1292 66.5938H35.9062Z" fill="white"/>
<path d="M31.75 26.1641C31.75 25.8405 32.0158 25.5781 32.3437 25.5781H33.2344C33.5623 25.5781 33.8281 25.8405 33.8281 26.1641V66.0078C33.8281 66.3314 33.5623 66.5938 33.2344 66.5938H32.3437C32.0158 66.5938 31.75 66.3314 31.75 66.0078V26.1641Z" fill="white"/>
</g>
<defs>
<filter id="filter0_d_516_3312" x="0" y="0" width="92" height="91" filterUnits="userSpaceOnUse" color-interpolation-filters="sRGB">
<feFlood flood-opacity="0" result="BackgroundImageFix"/>
<feColorMatrix in="SourceAlpha" type="matrix" values="0 0 0 0 0 0 0 0 0 0 0 0 0 0 0 0 0 0 127 0" result="hardAlpha"/>
<feOffset/>
<feGaussianBlur stdDeviation="4"/>
<feComposite in2="hardAlpha" operator="out"/>
<feColorMatrix type="matrix" values="0 0 0 0 0 0 0 0 0 0 0 0 0 0 0 0 0 0 0.15 0"/>
<feBlend mode="normal" in2="BackgroundImageFix" result="effect1_dropShadow_516_3312"/>
<feBlend mode="normal" in="SourceGraphic" in2="effect1_dropShadow_516_3312" result="shape"/>
</filter>
</defs>
</svg>
