<?xml version="1.0" encoding="utf-8"?>
<!-- Generator: Adobe Illustrator 26.0.3, SVG Export Plug-In . SVG Version: 6.00 Build 0)  -->
<svg version="1.1" id="Layer_1" xmlns="http://www.w3.org/2000/svg" xmlns:xlink="http://www.w3.org/1999/xlink" x="0px" y="0px"
	 viewBox="0 0 75 75" style="enable-background:new 0 0 75 75;" xml:space="preserve">
<style type="text/css">
	.st0{fill:#6116DC;}
	.st1{fill:#FFFFFF;}
</style>
<g>
	<circle class="st0" cx="37.5" cy="37.5" r="37.5"/>
	<path class="st1" d="M30.7,57.8H41c3.6,0,6.5-1.1,8.6-3.4c1.6-1.6,2.3-3.8,2.3-6.4c0-2.8-0.8-5.1-2.5-7c-1.8-2.2-4.6-3.3-8.5-3.3
		H30.7V57.8z M30.7,31.4H41c2.4,0,4.3-0.8,5.8-2.3c1.3-1.4,1.9-3.1,1.9-5.3c0-1.8-0.8-3.4-2.3-4.8c-1.4-1.2-3.2-1.8-5.4-1.8H30.7
		V31.4z M24.2,64.2c-0.4,0-0.8-0.3-0.8-0.7V13c0-0.3,0.2-0.5,0.4-0.7l3.2-1.5c0.1,0,0.2-0.1,0.3-0.1H41c4.1,0,7.4,1.1,10.1,3.3
		c3.2,2.5,4.8,5.8,4.8,9.8c0,4.1-1.8,7.4-5.5,10.1c1.2,0.5,2.3,1.2,3.5,2.2c3.5,3.1,5.3,7,5.3,11.7c0,4.7-1.5,8.5-4.6,11.5
		c-3.3,3.2-7.8,4.8-13.6,4.8H24.2z"/>
	<path class="st1" d="M19,13c0-0.4,0.3-0.7,0.8-0.7h1.1c0.4,0,0.8,0.3,0.8,0.7v50.5c0,0.4-0.3,0.7-0.8,0.7h-1.1
		c-0.4,0-0.8-0.3-0.8-0.7V13z"/>
</g>
</svg>
