<svg width="76" height="75" viewBox="0 0 76 75" fill="none" xmlns="http://www.w3.org/2000/svg">
<circle cx="38.5" cy="37.5" r="37.5" fill="white"/>
<path d="M33.0101 53.5648H41.1292C43.997 53.5648 46.276 52.68 47.9663 50.9106C49.2008 49.6254 49.818 47.9305 49.818 45.8257C49.818 43.6465 49.1628 41.8119 47.8523 40.3218C46.4279 38.6082 44.1869 37.7514 41.1292 37.7514H33.0101V53.5648ZM33.0101 32.7225H41.1292C43.0284 32.7225 44.5572 32.1171 45.7157 30.9065C46.7413 29.8262 47.2541 28.4199 47.2541 26.6877C47.2541 25.2721 46.6369 23.9963 45.4024 22.8601C44.3008 21.9102 42.8764 21.4352 41.1292 21.4352H33.0101V32.7225ZM27.9062 58.5938C27.5783 58.5938 27.3125 58.3314 27.3125 58.0078V18.1756C27.3125 17.9484 27.4457 17.7416 27.6542 17.6451L30.2125 16.4616C30.2913 16.4252 30.3774 16.4062 30.4645 16.4062H41.1292C44.3388 16.4062 47.0072 17.263 49.1343 18.9766C51.6602 20.9882 52.9232 23.5679 52.9232 26.7156C52.9232 29.9193 51.4798 32.5828 48.593 34.7061C49.5236 35.0973 50.4448 35.684 51.3564 36.4663C54.1292 38.9435 55.5156 42.0168 55.5156 45.6861C55.5156 49.374 54.3001 52.4007 51.8692 54.7661C49.2673 57.3179 45.6873 58.5938 41.1292 58.5938H27.9062Z" fill="#6116DC"/>
<path d="M23.75 18.1641C23.75 17.8405 24.0158 17.5781 24.3437 17.5781H25.2344C25.5623 17.5781 25.8281 17.8405 25.8281 18.1641V58.0078C25.8281 58.3314 25.5623 58.5938 25.2344 58.5938H24.3437C24.0158 58.5938 23.75 58.3314 23.75 58.0078V18.1641Z" fill="#6116DC"/>
</svg>
