<svg width="75" height="75" viewBox="0 0 75 75" fill="none" xmlns="http://www.w3.org/2000/svg">
<path fill-rule="evenodd" clip-rule="evenodd" d="M37.5 75C58.2107 75 75 58.2107 75 37.5C75 16.7893 58.2107 0 37.5 0C16.7893 0 0 16.7893 0 37.5C0 58.2107 16.7893 75 37.5 75ZM40.1292 53.5648H32.0101V37.7514H40.1292C43.1869 37.7514 45.4279 38.6082 46.8523 40.3218C48.1628 41.8119 48.818 43.6465 48.818 45.8257C48.818 47.9305 48.2008 49.6254 46.9663 50.9106C45.276 52.68 42.997 53.5648 40.1292 53.5648ZM40.1292 32.7225H32.0101V21.4352H40.1292C41.8764 21.4352 43.3008 21.9102 44.4024 22.8601C45.6369 23.9963 46.2541 25.2721 46.2541 26.6877C46.2541 28.4199 45.7413 29.8262 44.7157 30.9065C43.5572 32.1171 42.0284 32.7225 40.1292 32.7225ZM26.3125 58.0078C26.3125 58.3314 26.5783 58.5938 26.9062 58.5938H40.1292C44.6873 58.5938 48.2673 57.3179 50.8692 54.7661C53.3001 52.4007 54.5156 49.374 54.5156 45.6861C54.5156 42.0168 53.1292 38.9435 50.3564 36.4663C49.4448 35.684 48.5236 35.0973 47.593 34.7061C50.4798 32.5828 51.9232 29.9193 51.9232 26.7156C51.9232 23.5679 50.6602 20.9882 48.1343 18.9766C46.0072 17.263 43.3388 16.4062 40.1292 16.4062H29.4645C29.3774 16.4062 29.2913 16.4252 29.2125 16.4616L26.6542 17.6451C26.4457 17.7416 26.3125 17.9484 26.3125 18.1756V58.0078ZM23.3438 17.5781C23.0158 17.5781 22.75 17.8405 22.75 18.1641V58.0078C22.75 58.3314 23.0158 58.5938 23.3438 58.5938H24.2344C24.5623 58.5938 24.8281 58.3314 24.8281 58.0078V18.1641C24.8281 17.8405 24.5623 17.5781 24.2344 17.5781H23.3438Z" fill="white"/>
</svg>
