<svg width="59" height="58" viewBox="0 0 59 58" fill="none" xmlns="http://www.w3.org/2000/svg">
<circle cx="30" cy="29" r="29" fill="#6116DC"/>
<path d="M25.7545 41.4234H32.0332C34.251 41.4234 36.0134 40.7392 37.3206 39.3709C38.2753 38.377 38.7526 37.0662 38.7526 35.4386C38.7526 33.7533 38.2459 32.3345 37.2325 31.1822C36.1309 29.857 34.3979 29.1945 32.0332 29.1945H25.7545V41.4234ZM25.7545 25.3054H32.0332C33.5019 25.3054 34.6843 24.8372 35.5802 23.901C36.3733 23.0656 36.7698 21.9781 36.7698 20.6385C36.7698 19.5438 36.2925 18.5571 35.3378 17.6785C34.486 16.9439 33.3844 16.5766 32.0332 16.5766H25.7545V25.3054ZM21.8075 45.3125C21.5539 45.3125 21.3483 45.1096 21.3483 44.8594V14.0558C21.3483 13.8801 21.4513 13.7201 21.6126 13.6455L23.591 12.7303C23.652 12.7021 23.7185 12.6875 23.7859 12.6875H32.0332C34.5154 12.6875 36.5789 13.3501 38.2239 14.6752C40.1773 16.2309 41.1539 18.2258 41.1539 20.6601C41.1539 23.1376 40.0377 25.1973 37.8053 26.8394C38.5249 27.1419 39.2373 27.5956 39.9423 28.2006C42.0866 30.1163 43.1587 32.493 43.1587 35.3305C43.1587 38.1825 42.2188 40.5232 40.3388 42.3525C38.3267 44.3258 35.5581 45.3125 32.0332 45.3125H21.8075Z" fill="white"/>
<path d="M18.5933 14.0469C18.5933 13.7966 18.7989 13.5937 19.0525 13.5937H19.7413C19.9948 13.5937 20.2004 13.7966 20.2004 14.0469V44.8594C20.2004 45.1096 19.9948 45.3125 19.7413 45.3125H19.0525C18.7989 45.3125 18.5933 45.1096 18.5933 44.8594V14.0469Z" fill="white"/>
</svg>
