<?xml version="1.0" encoding="utf-8"?>
<!-- Generator: Adobe Illustrator 26.0.3, SVG Export Plug-In . SVG Version: 6.00 Build 0)  -->
<svg version="1.1" id="Layer_1" xmlns="http://www.w3.org/2000/svg" xmlns:xlink="http://www.w3.org/1999/xlink" x="0px" y="0px"
	 viewBox="0 0 469.7 58" style="enable-background:new 0 0 469.7 58;" xml:space="preserve">
<style type="text/css">
	.st0{fill-rule:evenodd;clip-rule:evenodd;fill:#FFFFFF;}
	.st1{fill:#FFFFFF;}
</style>
<path class="st0" d="M29,58c16,0,29-13,29-29S45,0,29,0S0,13,0,29S13,58,29,58z M31,41.4h-6.3V29.2H31c2.4,0,4.1,0.7,5.2,2
	c1,1.2,1.5,2.6,1.5,4.3c0,1.6-0.5,2.9-1.4,3.9C35,40.7,33.3,41.4,31,41.4z M31,25.3h-6.3v-8.7H31c1.4,0,2.5,0.4,3.3,1.1
	c1,0.9,1.4,1.9,1.4,3c0,1.3-0.4,2.4-1.2,3.3C33.7,24.8,32.5,25.3,31,25.3z M20.3,44.8c0,0.3,0.2,0.5,0.5,0.5H31c3.5,0,6.3-1,8.3-3
	c1.9-1.8,2.8-4.2,2.8-7s-1.1-5.2-3.2-7.1c-0.7-0.6-1.4-1.1-2.1-1.4c2.2-1.6,3.3-3.7,3.3-6.2c0-2.4-1-4.4-2.9-6c-1.6-1.3-3.7-2-6.2-2
	h-8.2c-0.1,0-0.1,0-0.2,0l-2,0.9c-0.2,0.1-0.3,0.2-0.3,0.4C20.3,13.9,20.3,44.8,20.3,44.8z M18.1,13.6c-0.3,0-0.5,0.2-0.5,0.5v30.7
	c0,0.3,0.2,0.5,0.5,0.5h0.7c0.3,0,0.5-0.2,0.5-0.5V14c0-0.3-0.2-0.5-0.5-0.5h-0.7V13.6z"/>
<path class="st1" d="M81.7,12.7H90c4.7,0,7.8,0.7,9.3,2.3s2.3,3.4,2.3,5.6c0,1.5-0.4,2.9-1,4.2c-0.6,1.3-1.7,2.3-3.1,3
	c2.1,0.6,3.6,1.5,4.6,2.8c1,1.3,1.5,2.9,1.5,4.7s-0.3,3.5-0.9,5c-0.6,1.5-1.8,2.6-3.7,3.5s-4.5,1.4-8,1.4h-9.2V12.7z M90.8,26.5
	c2.1,0,3.6-0.5,4.4-1.5c0.9-1,1.3-2.3,1.3-3.9c0-2.8-2-4.2-6-4.2h-4v9.6H90.8z M91.7,41.1c2.7,0,4.5-0.6,5.5-1.6
	c0.9-1.1,1.4-2.5,1.4-4.2c0-1.6-0.6-2.8-1.6-3.6c-1.1-0.8-2.7-1.3-4.8-1.3h-5.5v10.6C86.6,41.1,91.7,41.1,91.7,41.1z M126.9,45.3
	L120.3,33c-1.4,0.1-2.6,0.1-3.6,0.1h-1.2v12.2h-4.9V12.7h7.4c3.8,0,6.8,0.7,9.2,2.3c2.4,1.6,3.6,4.1,3.6,7.6c0,2.2-0.6,4.1-1.6,5.6
	c-1,1.6-2.5,2.8-4.5,3.6l7.8,13.4H126.9z M118.6,29c2.9,0,4.9-0.6,5.9-1.8c1.1-1.3,1.7-2.8,1.7-4.5c0-3.9-2.6-5.8-7.8-5.8h-3V29
	H118.6z M150.7,12.6l15.7,32.6h-5.7l-2.8-6.4h-15l-2.8,6.4h-5.5l15.6-32.6H150.7z M148.5,26.5l-3.5,7.9h11l-3.5-7.9l-1.9-4.4h-0.1
	L148.5,26.5z M175.2,30.1l-11.3-17.4h5.9l7.9,12.8l7.9-12.8h5.9l-11.3,17.5v15.1h-5V30.1z M195.2,12.7h7.9c6.6,0,11.2,1.6,13.8,4.6
	c2.6,3.1,4,6.8,4,11.1c0,3-0.6,5.7-1.7,8.3c-1.1,2.5-3,4.5-5.5,6.2c-2.6,1.6-5.9,2.4-10.2,2.4h-8.1L195.2,12.7L195.2,12.7z
	 M203.9,40.9c4.1,0,7-1.1,8.9-3.4s2.8-5.3,2.8-8.8c0-3.4-0.9-6.2-2.8-8.4c-1.8-2.1-4.8-3.2-8.9-3.2h-3.7v23.8H203.9z M226.8,12.7
	h14.3v4.3h-9.3v9h7.6v4.4h-7.6v10.4h10.8v4.4h-15.7L226.8,12.7L226.8,12.7z M253.5,24.2l0.1,3.5v17.6h-5V12.6h0.6L268.4,34l-0.2-3.7
	V12.7h5v32.6h-0.6L253.5,24.2z M293.2,12.7h8.3c4.7,0,7.8,0.7,9.3,2.3c1.6,1.6,2.3,3.4,2.3,5.6c0,1.5-0.4,2.9-1,4.2
	c-0.6,1.3-1.7,2.3-3.1,3c2.1,0.6,3.6,1.5,4.6,2.8c1,1.3,1.5,2.9,1.5,4.7s-0.3,3.5-0.9,5c-0.6,1.4-1.8,2.6-3.7,3.5
	c-1.8,0.9-4.5,1.4-8,1.4h-9.3L293.2,12.7L293.2,12.7z M302.4,26.5c2.1,0,3.6-0.5,4.4-1.5c0.9-1,1.3-2.3,1.3-3.9c0-2.8-2-4.2-6-4.2
	h-4v9.6H302.4z M303.2,41.1c2.7,0,4.5-0.6,5.4-1.6c0.9-1.1,1.4-2.5,1.4-4.2c0-1.6-0.6-2.8-1.6-3.6c-1.1-0.8-2.7-1.3-4.8-1.3h-5.5
	v10.6C298.1,41.1,303.2,41.1,303.2,41.1z M333.1,12.6l15.7,32.6h-5.7l-2.8-6.4h-15l-2.8,6.4h-5.5l15.6-32.6H333.1z M330.9,26.5
	l-3.5,7.9h11l-3.5-7.9l-1.9-4.4h-0.1L330.9,26.5z M352.7,12.7h8.3c4.7,0,7.8,0.7,9.3,2.3c1.6,1.6,2.3,3.4,2.3,5.6
	c0,1.5-0.4,2.9-1,4.2c-0.6,1.3-1.7,2.3-3.1,3c2.1,0.6,3.6,1.5,4.6,2.8c1,1.3,1.5,2.9,1.5,4.7s-0.3,3.5-0.9,5
	c-0.6,1.5-1.8,2.6-3.7,3.5c-1.8,0.9-4.5,1.4-8,1.4h-9.3L352.7,12.7L352.7,12.7z M361.8,26.5c2.1,0,3.6-0.5,4.4-1.5
	c0.9-1,1.3-2.3,1.3-3.9c0-2.8-2-4.2-6-4.2h-4v9.6H361.8z M362.7,41.1c2.7,0,4.5-0.6,5.5-1.6c0.9-1.1,1.4-2.5,1.4-4.2
	c0-1.6-0.6-2.8-1.6-3.6c-1.1-0.8-2.7-1.3-4.8-1.3h-5.5v10.6C357.6,41.1,362.7,41.1,362.7,41.1z M381.5,12.7h8.3
	c4.7,0,7.8,0.7,9.3,2.3s2.3,3.4,2.3,5.6c0,1.5-0.4,2.9-1,4.2c-0.6,1.3-1.7,2.3-3.1,3c2.1,0.6,3.6,1.5,4.6,2.8c1,1.3,1.5,2.9,1.5,4.7
	s-0.3,3.5-0.9,5c-0.6,1.4-1.8,2.6-3.7,3.5c-1.8,0.9-4.5,1.4-8,1.4h-9.3L381.5,12.7L381.5,12.7z M390.7,26.5c2.1,0,3.6-0.5,4.4-1.5
	c0.9-1,1.3-2.3,1.3-3.9c0-2.8-2-4.2-6-4.2h-4v9.6H390.7z M391.5,41.1c2.7,0,4.5-0.6,5.4-1.6c0.9-1.1,1.4-2.5,1.4-4.2
	c0-1.6-0.6-2.8-1.6-3.6c-1.1-0.8-2.7-1.3-4.8-1.3h-5.5v10.6C386.4,41.1,391.5,41.1,391.5,41.1z M411,12.7h5v32.6h-5V12.7z
	 M430.8,17.1h-8.3v-4.3h21.7v4.3h-8.4v28.3h-4.9L430.8,17.1L430.8,17.1z M456.3,17.1H448v-4.3h21.7v4.3h-8.4v28.3h-4.9L456.3,17.1
	L456.3,17.1z"/>
</svg>
