<?xml version="1.0" encoding="utf-8"?>
<!-- Generator: Adobe Illustrator 26.0.3, SVG Export Plug-In . SVG Version: 6.00 Build 0)  -->
<svg version="1.1" id="Layer_1" xmlns="http://www.w3.org/2000/svg" xmlns:xlink="http://www.w3.org/1999/xlink" x="0px" y="0px"
	 viewBox="0 0 496.6 58" style="enable-background:new 0 0 496.6 58;" xml:space="preserve">
<style type="text/css">
	.st0{fill-rule:evenodd;clip-rule:evenodd;fill:#FFFFFF;}
	.st1{fill:#FFFFFF;}
</style>
<path class="st0" d="M29,58c16,0,29-13,29-29S45,0,29,0S0,13,0,29S13,58,29,58z M31,41.4h-6.3V29.2H31c2.4,0,4.1,0.7,5.2,2
	c1,1.2,1.5,2.6,1.5,4.3c0,1.6-0.5,2.9-1.4,3.9C35,40.7,33.3,41.4,31,41.4z M31,25.3h-6.3v-8.7H31c1.4,0,2.5,0.4,3.3,1.1
	c1,0.9,1.4,1.9,1.4,3c0,1.3-0.4,2.4-1.2,3.3C33.7,24.8,32.5,25.3,31,25.3z M20.3,44.9c0,0.3,0.2,0.5,0.5,0.5H31c3.5,0,6.3-1,8.3-3
	c1.9-1.8,2.8-4.2,2.8-7s-1.1-5.2-3.2-7.1c-0.7-0.6-1.4-1.1-2.1-1.4c2.2-1.6,3.3-3.7,3.3-6.2c0-2.4-1-4.4-2.9-6c-1.6-1.3-3.7-2-6.2-2
	h-8.2c-0.1,0-0.1,0-0.2,0l-2,0.9c-0.2,0.1-0.3,0.2-0.3,0.4C20.3,14,20.3,44.9,20.3,44.9z M18.1,13.6c-0.3,0-0.5,0.2-0.5,0.5v30.8
	c0,0.3,0.2,0.5,0.5,0.5h0.7c0.3,0,0.5-0.2,0.5-0.5V14c0-0.3-0.2-0.5-0.5-0.5h-0.7V13.6z"/>
<path class="st1" d="M76.7,13.7h9c5.1,0,8.4,0.8,10.1,2.5s2.5,3.7,2.5,6.1c0,1.6-0.4,3.1-1.1,4.6c-0.7,1.4-1.8,2.5-3.4,3.2
	c2.3,0.6,3.9,1.6,5,3c1.1,1.4,1.6,3.1,1.6,5.1s-0.3,3.8-1,5.4s-2,2.8-4,3.8s-4.9,1.5-8.7,1.5h-10V13.7z M86.6,28.7
	c2.3,0,3.9-0.5,4.8-1.6c1-1.1,1.4-2.5,1.4-4.2c0-3-2.2-4.6-6.5-4.6H82v10.4H86.6z M87.5,44.5c2.9,0,4.9-0.6,5.9-1.7
	c1-1.2,1.5-2.7,1.5-4.5c0-1.7-0.6-3-1.7-3.9c-1.1-1-2.9-1.4-5.2-1.4h-6v11.5H87.5z M125.6,49l-7.1-13.3c-1.5,0.1-2.8,0.1-3.9,0.1
	h-1.3V49H108V13.7h8c4.1,0,7.4,0.8,10,2.5c2.6,1.7,3.9,4.4,3.9,8.2c0,2.4-0.6,4.4-1.7,6.1c-1.1,1.7-2.7,3-4.9,3.9l8.4,14.5L125.6,49
	L125.6,49z M116.6,31.4c3.1,0,5.3-0.7,6.4-2c1.2-1.4,1.8-3,1.8-4.9c0-4.2-2.8-6.3-8.4-6.3h-3.2v13.2
	C113.2,31.4,116.6,31.4,116.6,31.4z M151.4,13.7l17,35.3h-6.2l-3-6.9H143l-3,6.9h-6l16.9-35.3C150.9,13.7,151.4,13.7,151.4,13.7z
	 M149,28.7l-3.8,8.5h11.9l-3.8-8.5l-2.1-4.8h-0.1L149,28.7z M177.9,32.5l-12.2-18.8h6.4l8.5,13.9l8.5-13.9h6.4l-12.2,18.9V49h-5.4
	V32.5z M199.6,13.7h8.5c7.1,0,12.1,1.7,14.9,5c2.8,3.4,4.3,7.4,4.3,12c0,3.2-0.6,6.2-1.8,9c-1.2,2.7-3.2,4.9-6,6.7
	c-2.8,1.7-6.4,2.6-11,2.6h-8.8L199.6,13.7L199.6,13.7z M209,44.2c4.4,0,7.6-1.2,9.6-3.7s3-5.7,3-9.5c0-3.7-1-6.7-3-9.1
	s-5.2-3.5-9.6-3.5h-4v25.8C205,44.2,209,44.2,209,44.2z M233.8,13.7h15.5v4.7h-10.1v9.7h8.2V33h-8.2v11.3h11.7V49h-17L233.8,13.7
	L233.8,13.7z M262.7,26.2l0.1,3.8v19h-5.4V13.7h0.7l20.7,23.1l-0.2-4V13.7h5.4V49h-0.7L262.7,26.2z M305.7,13.7h9
	c5.1,0,8.4,0.8,10.1,2.5s2.5,3.7,2.5,6.1c0,1.6-0.4,3.1-1.1,4.6c-0.7,1.4-1.8,2.5-3.4,3.2c2.3,0.6,3.9,1.6,5,3
	c1.1,1.4,1.6,3.1,1.6,5.1s-0.3,3.8-1,5.4c-0.6,1.5-2,2.8-4,3.8s-4.9,1.5-8.7,1.5h-10.1V13.7H305.7z M315.6,28.7
	c2.3,0,3.9-0.5,4.8-1.6c1-1.1,1.4-2.5,1.4-4.2c0-3-2.2-4.6-6.5-4.6H311v10.4H315.6z M316.5,44.5c2.9,0,4.9-0.6,5.9-1.7
	c1-1.2,1.5-2.7,1.5-4.5c0-1.7-0.6-3-1.7-3.9c-1.2-0.9-2.9-1.4-5.2-1.4h-6v11.5C311,44.5,316.5,44.5,316.5,44.5z M348.9,13.7l17,35.3
	h-6.2l-3-6.9h-16.2l-3,6.9h-6l16.9-35.3C348.4,13.7,348.9,13.7,348.9,13.7z M346.5,28.7l-3.8,8.5h11.9l-3.8-8.5l-2.1-4.8h-0.1
	L346.5,28.7z M370.1,13.7h9c5.1,0,8.4,0.8,10.1,2.5s2.5,3.7,2.5,6.1c0,1.6-0.4,3.1-1.1,4.6c-0.7,1.4-1.8,2.5-3.4,3.2
	c2.3,0.6,3.9,1.6,5,3c1.1,1.4,1.6,3.1,1.6,5.1s-0.3,3.8-1,5.4s-2,2.8-4,3.8s-4.9,1.5-8.7,1.5H370V13.7H370.1z M379.9,28.7
	c2.3,0,3.9-0.5,4.8-1.6c1-1.1,1.4-2.5,1.4-4.2c0-3-2.2-4.6-6.5-4.6h-4.3v10.4H379.9z M380.9,44.5c2.9,0,4.9-0.6,5.9-1.7
	c1-1.2,1.5-2.7,1.5-4.5c0-1.7-0.6-3-1.7-3.9c-1.2-0.9-2.9-1.4-5.2-1.4h-6v11.5C375.4,44.5,380.9,44.5,380.9,44.5z M401.3,13.7h9
	c5.1,0,8.4,0.8,10.1,2.5s2.5,3.7,2.5,6.1c0,1.6-0.4,3.1-1.1,4.6c-0.7,1.4-1.8,2.5-3.4,3.2c2.3,0.6,3.9,1.6,5,3
	c1.1,1.4,1.6,3.1,1.6,5.1s-0.3,3.8-1,5.4c-0.6,1.5-2,2.8-4,3.8s-4.9,1.5-8.7,1.5h-10.1V13.7H401.3z M411.2,28.7
	c2.3,0,3.9-0.5,4.8-1.6c1-1.1,1.4-2.5,1.4-4.2c0-3-2.2-4.6-6.5-4.6h-4.3v10.4H411.2z M412.1,44.5c2.9,0,4.9-0.6,5.9-1.7
	c1-1.2,1.5-2.7,1.5-4.5c0-1.7-0.6-3-1.7-3.9c-1.2-0.9-2.9-1.4-5.2-1.4h-6v11.5C406.6,44.5,412.1,44.5,412.1,44.5z M433.2,13.7h5.4
	V49h-5.4V13.7z M454.6,18.4h-9v-4.7h23.5v4.7H460V49h-5.3V18.4H454.6z M482.2,18.4h-9v-4.7h23.5v4.7h-9.1V49h-5.3V18.4H482.2z"/>
</svg>
